<svg width="4" height="16" viewBox="0 0 4 16" fill="none" xmlns="http://www.w3.org/2000/svg">
<path d="M1.99996 8.83203C2.4602 8.83203 2.83329 8.45894 2.83329 7.9987C2.83329 7.53846 2.4602 7.16536 1.99996 7.16536C1.53972 7.16536 1.16663 7.53846 1.16663 7.9987C1.16663 8.45894 1.53972 8.83203 1.99996 8.83203Z" stroke="#F2F2F7" stroke-width="1.5" stroke-linecap="round" stroke-linejoin="round"/>
<path d="M1.99996 2.9987C2.4602 2.9987 2.83329 2.6256 2.83329 2.16536C2.83329 1.70513 2.4602 1.33203 1.99996 1.33203C1.53972 1.33203 1.16663 1.70513 1.16663 2.16536C1.16663 2.6256 1.53972 2.9987 1.99996 2.9987Z" stroke="#F2F2F7" stroke-width="1.5" stroke-linecap="round" stroke-linejoin="round"/>
<path d="M1.99996 14.6654C2.4602 14.6654 2.83329 14.2923 2.83329 13.832C2.83329 13.3718 2.4602 12.9987 1.99996 12.9987C1.53972 12.9987 1.16663 13.3718 1.16663 13.832C1.16663 14.2923 1.53972 14.6654 1.99996 14.6654Z" stroke="#F2F2F7" stroke-width="1.5" stroke-linecap="round" stroke-linejoin="round"/>
</svg>
