<svg width="20" height="20" viewBox="0 0 20 20" fill="none" xmlns="http://www.w3.org/2000/svg">
<path d="M10.0002 10.8346C10.4604 10.8346 10.8335 10.4615 10.8335 10.0013C10.8335 9.54106 10.4604 9.16797 10.0002 9.16797C9.53993 9.16797 9.16683 9.54106 9.16683 10.0013C9.16683 10.4615 9.53993 10.8346 10.0002 10.8346Z" stroke="#CECFD2" stroke-width="1.5" stroke-linecap="round" stroke-linejoin="round"/>
<path d="M15.8335 10.8346C16.2937 10.8346 16.6668 10.4615 16.6668 10.0013C16.6668 9.54106 16.2937 9.16797 15.8335 9.16797C15.3733 9.16797 15.0002 9.54106 15.0002 10.0013C15.0002 10.4615 15.3733 10.8346 15.8335 10.8346Z" stroke="#CECFD2" stroke-width="1.5" stroke-linecap="round" stroke-linejoin="round"/>
<path d="M4.16683 10.8346C4.62707 10.8346 5.00016 10.4615 5.00016 10.0013C5.00016 9.54106 4.62707 9.16797 4.16683 9.16797C3.70659 9.16797 3.3335 9.54106 3.3335 10.0013C3.3335 10.4615 3.70659 10.8346 4.16683 10.8346Z" stroke="#CECFD2" stroke-width="1.5" stroke-linecap="round" stroke-linejoin="round"/>
</svg>
