<svg width="24" height="24" viewBox="0 0 24 24" fill="none" xmlns="http://www.w3.org/2000/svg">
<g clip-path="url(#clip0_425_2579)">
<path d="M18.5332 4.25109C18.7611 4.80236 19.1987 5.24055 19.7496 5.46932L21.6814 6.26951C22.2327 6.49787 22.6708 6.93589 22.8991 7.4872C23.1275 8.03852 23.1275 8.65796 22.8991 9.20928L22.0995 11.1397C21.871 11.6913 21.8707 12.3114 22.1002 12.8626L22.8984 14.7925C23.0117 15.0656 23.0699 15.3583 23.07 15.6539C23.07 15.9495 23.0118 16.2422 22.8987 16.5153C22.7856 16.7884 22.6198 17.0365 22.4107 17.2455C22.2017 17.4545 21.9535 17.6202 21.6804 17.7332L19.7499 18.5328C19.1987 18.7608 18.7605 19.1983 18.5317 19.7492L17.7315 21.6811C17.5031 22.2324 17.0651 22.6704 16.5138 22.8988C15.9625 23.1271 15.343 23.1271 14.7917 22.8988L12.8613 22.0992C12.31 21.8714 11.6907 21.8718 11.1397 22.1004L9.20792 22.8995C8.65691 23.1273 8.038 23.1271 7.48713 22.899C6.93627 22.6708 6.4985 22.2333 6.26998 21.6826L5.46955 19.7501C5.24161 19.1989 4.80408 18.7607 4.25315 18.5319L2.32132 17.7317C1.77025 17.5035 1.33236 17.0657 1.10392 16.5147C0.875471 15.9637 0.875161 15.3446 1.10306 14.7934L1.90267 12.8629C2.13047 12.3116 2.13001 11.6923 1.90138 11.1414L1.10291 9.20815C0.989703 8.93509 0.93141 8.6424 0.931363 8.3468C0.931315 8.05121 0.989514 7.7585 1.10263 7.4854C1.21575 7.21231 1.38158 6.96418 1.59063 6.7552C1.79968 6.54621 2.04786 6.38047 2.32099 6.26744L4.25144 5.46782C4.80223 5.24008 5.24015 4.8031 5.46909 4.25281L6.26928 2.32098C6.49764 1.76966 6.93566 1.33165 7.48697 1.10329C8.03829 0.874924 8.65774 0.874924 9.20905 1.10329L11.1395 1.9029C11.6908 2.1307 12.3101 2.13024 12.861 1.90161L14.7937 1.10453C15.3449 0.876292 15.9642 0.876339 16.5154 1.10465C17.0666 1.33297 17.5046 1.77086 17.733 2.32203L18.5334 4.25444L18.5332 4.25109Z" fill="#2E90FA"/>
<path fill-rule="evenodd" clip-rule="evenodd" d="M16.6999 8.8551C16.8602 8.60328 16.9139 8.29808 16.8492 8.00665C16.7845 7.71522 16.6067 7.46143 16.3549 7.3011C16.1031 7.14078 15.7979 7.08706 15.5064 7.15176C15.215 7.21646 14.9612 7.39428 14.8009 7.6461L10.3954 14.5686L8.37939 12.0486C8.19301 11.8155 7.92166 11.6659 7.62502 11.6329C7.32838 11.5998 7.03077 11.686 6.79764 11.8724C6.56452 12.0587 6.41498 12.3301 6.38193 12.6267C6.34887 12.9234 6.43501 13.221 6.62139 13.4541L9.62139 17.2041C9.7332 17.344 9.8768 17.4552 10.0402 17.5285C10.2037 17.6017 10.3823 17.6349 10.5611 17.6252C10.74 17.6155 10.9139 17.5633 11.0685 17.4728C11.2231 17.3824 11.3538 17.2563 11.4499 17.1051L16.6999 8.8551Z" fill="white"/>
</g>
<defs>
<clipPath id="clip0_425_2579">
<rect width="24" height="24" fill="white"/>
</clipPath>
</defs>
</svg>
